<svg width="94" height="56" viewBox="0 0 94 56" fill="none" xmlns="http://www.w3.org/2000/svg">
<path d="M84.9988 80.76C77.5321 80.76 71.3454 78.3067 66.4388 73.4C61.7454 68.4933 59.3988 61.4533 59.3988 52.28C59.3988 42.4666 62.1721 32.76 67.7188 23.16C73.4788 13.56 81.4788 6.09332 91.7188 0.759979L99.0788 11.96C87.9854 19.64 81.3721 29.3467 79.2388 41.08C81.1588 40.2267 83.3988 39.8 85.9588 39.8C91.9321 39.8 96.8388 41.72 100.679 45.56C104.519 49.4 106.439 54.3067 106.439 60.28C106.439 66.2533 104.412 71.16 100.359 75C96.3054 78.84 91.1854 80.76 84.9988 80.76ZM26.1188 80.76C18.6521 80.76 12.4654 78.3067 7.55875 73.4C2.86542 68.4933 0.518751 61.4533 0.518751 52.28C0.518751 42.4666 3.29208 32.76 8.83875 23.16C14.5988 13.56 22.5988 6.09332 32.8388 0.759979L40.1988 11.96C29.1054 19.64 22.4921 29.3467 20.3588 41.08C22.2788 40.2267 24.5188 39.8 27.0788 39.8C33.0521 39.8 37.9588 41.72 41.7988 45.56C45.6388 49.4 47.5588 54.3067 47.5588 60.28C47.5588 66.2533 45.5321 71.16 41.4788 75C37.4254 78.84 32.3054 80.76 26.1188 80.76Z" fill="black" fill-opacity="0.05"/>
</svg>
