<svg width="24" height="24" viewBox="0 0 24 24" fill="none" xmlns="http://www.w3.org/2000/svg">
<g id="call-02">
<path id="Vector" d="M9.34707 6.13151L8.97126 5.28593C8.72553 4.73305 8.60267 4.4566 8.41892 4.24504C8.18864 3.97991 7.88847 3.78484 7.55267 3.68209C7.28472 3.6001 6.98219 3.6001 6.37716 3.6001C5.49208 3.6001 5.04954 3.6001 4.67805 3.77024C4.24044 3.97065 3.84524 4.40583 3.68778 4.86066C3.55411 5.24677 3.5924 5.64357 3.66897 6.43715C4.48408 14.8843 9.1152 19.5154 17.5623 20.3305C18.3559 20.4071 18.7527 20.4454 19.1388 20.3117C19.5937 20.1543 20.0288 19.759 20.2293 19.3214C20.3993 18.9499 20.3993 18.5074 20.3993 17.6223C20.3993 17.0172 20.3993 16.7147 20.3174 16.4468C20.2146 16.111 20.0196 15.8108 19.7544 15.5806C19.5429 15.3968 19.2664 15.274 18.7135 15.0282L17.8679 14.6523C17.2692 14.3863 16.9698 14.2533 16.6656 14.2243C16.3744 14.1966 16.0809 14.2375 15.8084 14.3436C15.5236 14.4545 15.272 14.6642 14.7685 15.0836C14.2675 15.5012 14.017 15.71 13.7109 15.8218C13.4395 15.9209 13.0807 15.9577 12.7949 15.9155C12.4724 15.868 12.2256 15.7361 11.7317 15.4722C10.1955 14.6512 9.34826 13.804 8.52724 12.2677C8.26336 11.774 8.13143 11.527 8.08391 11.2046C8.04179 10.9187 8.07851 10.56 8.17764 10.2886C8.28948 9.98249 8.49825 9.73197 8.91581 9.2309C9.33528 8.72753 9.54502 8.47585 9.6559 8.19108C9.76202 7.91857 9.80288 7.625 9.77518 7.33388C9.74624 7.02965 9.61319 6.73027 9.34707 6.13151Z" stroke="currentColor" stroke-width="1.4" stroke-linecap="round"/>
</g>
</svg>
