<svg width="350" height="125" viewBox="0 0 350 125" fill="none" xmlns="http://www.w3.org/2000/svg">
<path d="M164.713 22.148C140.886 20.6511 117.342 18.719 93.3644 19.2709C68.5848 19.8412 -13.4561 21.0104 4.56275 65.0095C12.5632 84.5452 30.8865 93.9839 51.0085 101.969C86.5058 116.057 119.447 120.82 158.235 122.478C199.898 124.259 232.312 121.683 272.182 111.67C296.505 105.563 316.89 98.258 335.028 82.4197C339.96 78.1132 344.744 73.1179 346.933 67.2227C350.833 56.7179 343.356 43.29 335.595 36.4597C321.276 23.8584 295.784 14.0425 277.528 9.60672C253.015 3.6507 221.248 1.53938 195.974 2.08197C153.148 3.00135 113.379 12.1978 79.4347 36.0909" stroke="black" stroke-width="3" stroke-linecap="round"/>
</svg>
