<svg width="currentWidth" height="currentHeight" viewBox="0 0 185 92" fill="none" xmlns="http://www.w3.org/2000/svg">
<path id="Vector 11" d="M97.8811 16.6531C110.346 15.5644 122.662 14.1593 135.205 14.5606C148.168 14.9754 191.085 15.8258 181.659 47.8251C177.474 62.0329 167.889 68.8974 157.363 74.705C138.793 84.9503 121.561 88.4148 101.27 89.6203C79.4754 90.9153 62.5189 89.042 41.6618 81.7603C28.9384 77.3182 18.2742 72.0058 8.78597 60.4871C6.20606 57.3551 3.70318 53.7221 2.55821 49.4347C0.517963 41.7948 4.42937 32.0291 8.48941 27.0616C15.9799 17.897 29.3155 10.7582 38.8656 7.53216C51.6887 3.20051 68.3065 1.66501 81.5279 2.05961C103.931 2.72825 124.735 9.41661 142.492 26.7934" stroke="black" stroke-width="3" stroke-linecap="round"/>
</svg>
