<svg width="14" height="12" viewBox="0 0 14 12" fill="none" xmlns="http://www.w3.org/2000/svg">
<path d="M9.10358 9.45L9.87968 10.5124C9.95252 10.6277 10.0925 10.6792 10.2203 10.6335C10.7026 10.4613 11.8981 9.99437 12.8824 9.28349C12.9592 9.22805 13.0035 9.13564 13.0029 9.04035C13.0029 3.74955 11.5038 2.24944 11.5038 2.24944C11.5038 2.24944 10.3037 1.56066 9.01591 1.35298C8.88924 1.33254 8.76515 1.40042 8.7088 1.51672L8.44178 2.06748C8.44178 2.06748 7.77417 1.92779 7.00293 1.92779C6.23169 1.92779 5.56408 2.06748 5.56408 2.06748L5.29706 1.51672C5.24067 1.40042 5.11665 1.33254 4.98995 1.35298C3.70314 1.5605 2.50305 2.24944 2.50305 2.24944C2.50305 2.24944 1.00294 3.74955 1.00294 9.04035C1.00234 9.13564 1.04665 9.22805 1.12342 9.28349C2.10772 9.99437 3.30322 10.4613 3.78551 10.6335C3.91332 10.6792 4.05332 10.6277 4.12619 10.5124L4.90324 9.45" stroke="currentColor" stroke-width="0.775061" stroke-linecap="round" stroke-linejoin="round"/>
<path d="M10.3037 8.85034C10.3037 8.85034 8.92648 9.75041 7.00339 9.75041C5.08028 9.75041 3.70312 8.85034 3.70312 8.85034" stroke="currentColor" stroke-width="0.775061" stroke-linecap="round" stroke-linejoin="round"/>
<path d="M10.1531 6.14956C10.1531 6.81237 9.68301 7.34965 9.10306 7.34965C8.52312 7.34965 8.05298 6.81237 8.05298 6.14956C8.05298 5.48675 8.52312 4.94946 9.10306 4.94946C9.68301 4.94946 10.1531 5.48675 10.1531 6.14956Z" stroke="currentColor" stroke-width="0.775061"/>
<path d="M5.95271 6.1498C5.95271 6.81261 5.48257 7.3499 4.90262 7.3499C4.32268 7.3499 3.85254 6.81261 3.85254 6.1498C3.85254 5.48699 4.32268 4.94971 4.90262 4.94971C5.48257 4.94971 5.95271 5.48699 5.95271 6.1498Z" stroke="currentColor" stroke-width="0.775061"/>
</svg>
