<svg width="14" height="14" viewBox="0 0 14 14" fill="none" xmlns="http://www.w3.org/2000/svg">
<path d="M1.00371 7.00049C1.00371 4.17206 1.00371 2.75785 1.88239 1.87917C2.76107 1.00049 4.17528 1.00049 7.00371 1.00049C9.83211 1.00049 11.2463 1.00049 12.1251 1.87917C13.0037 2.75785 13.0037 4.17206 13.0037 7.00049C13.0037 9.82889 13.0037 11.2431 12.1251 12.1218C11.2463 13.0005 9.83211 13.0005 7.00371 13.0005C4.17528 13.0005 2.76107 13.0005 1.88239 12.1218C1.00371 11.2431 1.00371 9.82889 1.00371 7.00049Z" stroke="currentColor" stroke-linejoin="round"/>
<path d="M9.84302 7.00031C9.84302 8.56997 8.57058 9.84241 7.00092 9.84241C5.43127 9.84241 4.15881 8.56997 4.15881 7.00031C4.15881 5.43066 5.43127 4.1582 7.00092 4.1582C8.57058 4.1582 9.84302 5.43066 9.84302 7.00031Z" stroke="currentColor"/>
<path d="M10.4811 3.52637H10.4754" stroke="currentColor" stroke-linecap="round" stroke-linejoin="round"/>
</svg>
