<svg width="14" height="14" viewBox="0 0 14 14" fill="none" xmlns="http://www.w3.org/2000/svg">
<path d="M2.50066 5.49927H2.20067C1.63498 5.49927 1.35214 5.49927 1.1764 5.675C1.00067 5.85075 1.00067 6.13358 1.00067 6.69926V11.7992C1.00067 12.3649 1.00067 12.6478 1.1764 12.8235C1.35214 12.9992 1.63498 12.9992 2.20067 12.9992H2.50066C3.06635 12.9992 3.34919 12.9992 3.52493 12.8235C3.70066 12.6478 3.70066 12.3649 3.70066 11.7992V6.69926C3.70066 6.13358 3.70066 5.85075 3.52493 5.675C3.34919 5.49927 3.06635 5.49927 2.50066 5.49927Z" stroke="currentColor" stroke-width="0.999995"/>
<path d="M3.7008 2.34926C3.7008 3.09484 3.09638 3.69925 2.3508 3.69925C1.60522 3.69925 1.00081 3.09484 1.00081 2.34926C1.00081 1.60368 1.60522 0.999268 2.3508 0.999268C3.09638 0.999268 3.7008 1.60368 3.7008 2.34926Z" stroke="currentColor" stroke-width="0.999995"/>
<path d="M7.19657 5.49951H6.70097C6.13529 5.49951 5.85245 5.49951 5.67671 5.67524C5.50098 5.85099 5.50098 6.13383 5.50098 6.69951V11.7995C5.50098 12.3652 5.50098 12.648 5.67671 12.8237C5.85245 12.9995 6.13529 12.9995 6.70097 12.9995H7.00097C7.56665 12.9995 7.84948 12.9995 8.02522 12.8237C8.20096 12.648 8.20096 12.3652 8.20096 11.7995L8.20102 9.69955C8.20102 8.70548 8.51782 7.89956 9.4537 7.89956C9.92157 7.89956 10.301 8.30252 10.301 8.79956V11.4995C10.301 12.0652 10.301 12.3481 10.4767 12.5238C10.6524 12.6995 10.9353 12.6995 11.5009 12.6995H11.8002C12.3657 12.6995 12.6485 12.6995 12.8242 12.5239C13 12.3482 13 12.0654 13.0002 11.4998L13.001 8.19962C13.001 6.70851 11.5828 5.49966 10.179 5.49966C9.3799 5.49966 8.66698 5.89137 8.20102 6.50391C8.20096 6.12585 8.20096 5.93685 8.11888 5.79651C8.06686 5.70763 7.99282 5.63363 7.90396 5.58163C7.76363 5.49951 7.57463 5.49951 7.19657 5.49951Z" stroke="currentColor" stroke-width="0.999995" stroke-linejoin="round"/>
</svg>
