<svg width="24" height="24" viewBox="0 0 24 24" fill="none" xmlns="http://www.w3.org/2000/svg">
<g id="location-06">
<path id="Vector" d="M15.2669 11.0667C15.2669 12.8708 13.8044 14.3334 12.0003 14.3334C10.1961 14.3334 8.73361 12.8708 8.73361 11.0667C8.73361 9.26258 10.1961 7.80005 12.0003 7.80005C13.8044 7.80005 15.2669 9.26258 15.2669 11.0667Z" stroke="currentColor" stroke-width="1.4"/>
<path id="Vector_2" d="M11.9994 2.66675C16.5453 2.66675 20.3994 6.43086 20.3994 10.9975C20.3994 15.6368 16.4824 18.8925 12.8646 21.1063C12.6009 21.2552 12.3027 21.3334 11.9994 21.3334C11.696 21.3334 11.3978 21.2552 11.1342 21.1063C7.52301 18.8709 3.59937 15.6529 3.59937 10.9975C3.59937 6.43086 7.45351 2.66675 11.9994 2.66675Z" stroke="currentColor" stroke-width="1.4"/>
</g>
</svg>
