<svg width="14" height="12" viewBox="0 0 14 12" fill="none" xmlns="http://www.w3.org/2000/svg">
<path d="M3.99971 3.90015L5.76492 4.94378C6.79403 5.55224 7.20538 5.55224 8.2345 4.94378L9.9997 3.90015" stroke="currentColor" stroke-width="0.85" stroke-linecap="round" stroke-linejoin="round"/>
<path d="M1.01031 6.88478C1.04954 8.72408 1.06915 9.64376 1.74783 10.325C2.4265 11.0063 3.37105 11.03 5.26015 11.0775C6.42443 11.1067 7.57727 11.1067 8.74157 11.0775C10.6307 11.03 11.5752 11.0063 12.2538 10.325C12.9326 9.64376 12.9522 8.72408 12.9914 6.88478C13.004 6.29336 13.004 5.70542 12.9914 5.11407C12.9522 3.27473 12.9326 2.35507 12.2538 1.67381C11.5752 0.992553 10.6307 0.968823 8.74157 0.921357C7.57727 0.892101 6.42443 0.892101 5.26014 0.921351C3.37105 0.968811 2.4265 0.992541 1.74783 1.6738C1.06915 2.35506 1.04954 3.27472 1.01031 5.11401C0.997701 5.70542 0.997701 6.29336 1.01031 6.88478Z" stroke="currentColor" stroke-width="0.85" stroke-linejoin="round"/>
</svg>
