<svg width="24" height="24" viewBox="0 0 24 24" fill="none" xmlns="http://www.w3.org/2000/svg">
<g id="mail-02">
<path id="Vector" d="M7.33298 8.7334L10.0789 10.3568C11.6797 11.3033 12.3196 11.3033 13.9204 10.3568L16.6663 8.7334" stroke="currentColor" stroke-width="1.4" stroke-linecap="round" stroke-linejoin="round"/>
<path id="Vector_2" d="M2.6819 13.3772C2.74292 16.2384 2.77342 17.669 3.82914 18.7287C4.88487 19.7885 6.35417 19.8254 9.29277 19.8992C11.1039 19.9447 12.8972 19.9447 14.7083 19.8992C17.6469 19.8254 19.1162 19.7885 20.1719 18.7287C21.2276 17.669 21.2582 16.2384 21.3191 13.3772C21.3388 12.4573 21.3388 11.5427 21.3191 10.6228C21.2582 7.76159 21.2276 6.331 20.1719 5.27127C19.1162 4.21153 17.6469 4.17462 14.7083 4.10078C12.8972 4.05527 11.1039 4.05527 9.29276 4.10077C6.35417 4.1746 4.88487 4.21151 3.82914 5.27126C2.77342 6.33099 2.74291 7.76158 2.6819 10.6227C2.66228 11.5427 2.66228 12.4573 2.6819 13.3772Z" stroke="currentColor" stroke-width="1.4" stroke-linejoin="round"/>
</g>
</svg>
