<svg width="14" height="8" viewBox="0 0 14 8" fill="none" xmlns="http://www.w3.org/2000/svg">
<path d="M3.9985 6.59612C5.43231 6.59612 6.59465 5.43378 6.59465 3.99996C6.59465 2.56615 5.43231 1.40381 3.9985 1.40381C2.56468 1.40381 1.40234 2.56615 1.40234 3.99996C1.40234 5.43378 2.56468 6.59612 3.9985 6.59612Z" stroke="currentColor" stroke-width="0.865385"/>
<path d="M9.42157 6.59612C10.2181 6.59612 10.8639 5.43378 10.8639 3.99996C10.8639 2.56615 10.2181 1.40381 9.42157 1.40381C8.62501 1.40381 7.97926 2.56615 7.97926 3.99996C7.97926 5.43378 8.62501 6.59612 9.42157 6.59612Z" stroke="currentColor" stroke-width="0.865385"/>
<path d="M12.8254 6.59612C13.1441 6.59612 13.4024 5.43378 13.4024 3.99996C13.4024 2.56615 13.1441 1.40381 12.8254 1.40381C12.5068 1.40381 12.2485 2.56615 12.2485 3.99996C12.2485 5.43378 12.5068 6.59612 12.8254 6.59612Z" stroke="currentColor" stroke-width="0.865385"/>
</svg>
