<svg width="24" height="24" viewBox="0 0 24 24" fill="none" xmlns="http://www.w3.org/2000/svg">
<g id="nimbus:marketing">
<path id="Vector" d="M19.9394 3.12989C19.6988 2.97427 19.4237 2.88012 19.1383 2.85572C18.8528 2.83132 18.5657 2.87742 18.3022 2.98996L9.66884 6.39015C9.46445 6.47334 9.24586 6.5161 9.02519 6.51608H3.49813C3.03425 6.51608 2.58937 6.70036 2.26136 7.02837C1.93334 7.35639 1.74907 7.80127 1.74907 8.26515V8.40507H0V12.6028H1.74907V12.7847C1.76003 13.2413 1.94913 13.6755 2.27596 13.9945C2.6028 14.3135 3.04144 14.492 3.49813 14.4918L5.59701 18.9415C5.73914 19.2411 5.96289 19.4946 6.24258 19.6728C6.52226 19.851 6.84654 19.9467 7.17817 19.9489H8.0597C8.52115 19.9452 8.96245 19.7593 9.28744 19.4317C9.61244 19.1041 9.79479 18.6613 9.79478 18.1999V14.6597L18.3022 18.0599C18.5115 18.1432 18.7347 18.1859 18.9599 18.1859C19.3093 18.1802 19.6496 18.0733 19.9394 17.878C20.1695 17.7226 20.3593 17.5147 20.4932 17.2714C20.627 17.028 20.701 16.7563 20.709 16.4788V4.57112C20.7077 4.28639 20.6369 4.00629 20.5028 3.75512C20.3687 3.50396 20.1753 3.28933 19.9394 3.12989ZM8.04571 8.26515V12.7847H3.49813V8.26515H8.04571ZM8.04571 18.1999H7.16418L5.4431 14.4918H8.04571V18.1999ZM10.3125 12.9946C10.1464 12.9097 9.97313 12.8395 9.79478 12.7847V8.1672C9.97142 8.13075 10.1446 8.07926 10.3125 8.01328L18.9599 4.57112V16.4368L10.3125 12.9946ZM20.7509 8.75489V12.253C21.2148 12.253 21.6597 12.0687 21.9877 11.7407C22.3157 11.4127 22.5 10.9678 22.5 10.504C22.5 10.0401 22.3157 9.59519 21.9877 9.26718C21.6597 8.93916 21.2148 8.75489 20.7509 8.75489Z" fill="currentColor"/>
</g>
</svg>
