<svg width="23" height="23" viewBox="0 0 23 23" fill="none" xmlns="http://www.w3.org/2000/svg">
<g id="oui:training" clip-path="url(#clip0_417_45)">
<path id="Vector" d="M14.6053 13.8319C14.2403 13.254 14.0517 12.5822 14.0625 11.8987C14.0734 11.2153 14.2832 10.5498 14.6664 9.98379C15.0495 9.41775 15.5894 8.97568 16.2199 8.71168C16.8503 8.44768 17.5441 8.3732 18.2163 8.49736C18.8884 8.62152 19.5098 8.93892 20.0044 9.41074C20.499 9.88255 20.8453 10.4883 21.0009 11.1539C21.1566 11.8194 21.1149 12.516 20.8808 13.1582C20.6468 13.8004 20.2307 14.3605 19.6833 14.7698C21.3919 15.712 22.5 17.5219 22.5 19.6875V21.7969C22.5 21.9834 22.4259 22.1622 22.2941 22.2941C22.1622 22.4259 21.9834 22.5 21.7969 22.5C21.6104 22.5 21.4316 22.4259 21.2997 22.2941C21.1678 22.1622 21.0938 21.9834 21.0938 21.7969V19.6875C21.0938 17.2631 19.2994 15.4688 16.875 15.4688C15.5953 15.4688 15.0497 15.4406 14.3367 15.2972C12.5789 14.94 11.0559 13.8909 9.29531 11.6888C9.23245 11.6174 9.18473 11.5339 9.15504 11.4436C9.12535 11.3532 9.1143 11.2577 9.12257 11.163C9.13085 11.0682 9.15826 10.9761 9.20316 10.8922C9.24806 10.8084 9.30951 10.7345 9.3838 10.6751C9.45808 10.6156 9.54365 10.5719 9.63532 10.5465C9.727 10.5211 9.82287 10.5146 9.91714 10.5273C10.0114 10.54 10.1021 10.5718 10.1838 10.6206C10.2654 10.6694 10.3363 10.7342 10.3922 10.8113C11.6578 12.3919 12.7167 13.2581 13.815 13.6842C14.033 13.7573 14.3002 13.8009 14.6053 13.8319ZM17.1155 14.0119C17.2327 14.0259 17.3503 14.0419 17.4684 14.0597L17.5781 14.0625C18.1173 14.0613 18.6356 13.8537 19.0265 13.4822C19.4174 13.1108 19.6511 12.6038 19.6798 12.0653C19.7085 11.5269 19.5299 10.9979 19.1807 10.5871C18.8315 10.1762 18.3382 9.91467 17.8022 9.8562C17.2662 9.79772 16.7281 9.94674 16.2985 10.2726C15.869 10.5985 15.5805 11.0766 15.4924 11.6085C15.4043 12.1405 15.5233 12.686 15.8249 13.133C16.1265 13.5799 16.5892 13.8944 17.1155 14.0119ZM13.7531 16.8328C13.9396 16.8328 14.1184 16.9069 14.2503 17.0388C14.3822 17.1706 14.4562 17.3495 14.4562 17.5359C14.4457 17.6466 14.4221 17.7557 14.3859 17.8608C14.1342 18.3952 14.0625 18.9492 14.0625 19.6917V21.8011C14.0625 21.9876 13.9884 22.1664 13.8566 22.2983C13.7247 22.4301 13.5459 22.5042 13.3594 22.5042C13.1729 22.5042 12.9941 22.4301 12.8622 22.2983C12.7303 22.1664 12.6562 21.9876 12.6562 21.8011V19.6917C12.6562 18.7678 12.7575 18.0239 13.088 17.3067C13.1357 17.1683 13.2254 17.0482 13.3447 16.9633C13.4639 16.8783 13.6067 16.8327 13.7531 16.8328ZM8.37844 8.11687C8.48816 8.26293 8.53673 8.44596 8.51387 8.6272C8.491 8.80844 8.3985 8.97367 8.25594 9.0879C8.11338 9.20213 7.93196 9.25639 7.75009 9.2392C7.56822 9.222 7.40019 9.1347 7.28156 8.99578L4.37344 5.36063C4.31057 5.28923 4.26285 5.20582 4.23316 5.11544C4.20347 5.02507 4.19243 4.92961 4.2007 4.83484C4.20897 4.74007 4.23639 4.64797 4.28129 4.56411C4.32619 4.48024 4.38764 4.40636 4.46192 4.34693C4.5362 4.28751 4.62177 4.24377 4.71345 4.21838C4.80512 4.19298 4.901 4.18645 4.99527 4.19918C5.08954 4.21192 5.18025 4.24364 5.2619 4.29245C5.34356 4.34126 5.41446 4.40612 5.47031 4.48312L8.37844 8.11687ZM1.40625 15.4688H9.14062C9.32711 15.4688 9.50595 15.5428 9.63781 15.6747C9.76967 15.8066 9.84375 15.9854 9.84375 16.1719C9.84375 16.3584 9.76967 16.5372 9.63781 16.6691C9.50595 16.8009 9.32711 16.875 9.14062 16.875H0.703125C0.516645 16.875 0.337802 16.8009 0.205941 16.6691C0.074079 16.5372 0 16.3584 0 16.1719V0.703125C0 0.516645 0.074079 0.337802 0.205941 0.205941C0.337802 0.074079 0.516645 0 0.703125 0L17.5781 0C17.7646 0 17.9434 0.074079 18.0753 0.205941C18.2072 0.337802 18.2812 0.516645 18.2812 0.703125V4.92188C18.2812 5.10836 18.2072 5.2872 18.0753 5.41906C17.9434 5.55092 17.7646 5.625 17.5781 5.625C17.3916 5.625 17.2128 5.55092 17.0809 5.41906C16.9491 5.2872 16.875 5.10836 16.875 4.92188V1.40625H1.40625V15.4688Z" fill="currentColor"/>
</g>
<defs>
<clipPath id="clip0_417_45">
<rect width="22.5" height="22.5" fill="currentColor"/>
</clipPath>
</defs>
</svg>
