<svg width="32" height="32" viewBox="0 0 32 32" fill="none" xmlns="http://www.w3.org/2000/svg">
<g id="play-circle">
<path id="Vector" d="M16.0003 29.3327C23.3641 29.3327 29.3337 23.3631 29.3337 15.9993C29.3337 8.63555 23.3641 2.66602 16.0003 2.66602C8.63653 2.66602 2.66699 8.63555 2.66699 15.9993C2.66699 23.3631 8.63653 29.3327 16.0003 29.3327Z" stroke="#ADB77E"  stroke-width="2"/>
<path id="Vector_2" d="M20.6045 16.527C20.4025 17.3626 19.4479 17.9532 17.5389 19.1342C15.6933 20.2758 14.7706 20.8468 14.0269 20.6173C13.7194 20.5224 13.4394 20.3422 13.2134 20.094C12.667 19.4937 12.667 18.3293 12.667 16.0006C12.667 13.672 12.667 12.5076 13.2134 11.9072C13.4394 11.6591 13.7194 11.4789 14.0269 11.384C14.7706 11.1546 15.6933 11.7254 17.5389 12.8671C19.4479 14.0481 20.4025 14.6386 20.6045 15.4742C20.6878 15.8192 20.6878 16.1821 20.6045 16.527Z" stroke="#ADB77E"  stroke-width="2" stroke-linejoin="round"/>
</g>
</svg>
