<svg width="26" height="26" viewBox="0 0 26 26" fill="none" xmlns="http://www.w3.org/2000/svg">
<g id="telegram">
<rect x="0.5" y="0.5" width="25" height="25" rx="12.5" stroke="currentColor"/>
<path id="Vector" d="M12.9883 15.0451L14.9332 17.2563C15.6537 18.0754 16.014 18.4851 16.3911 18.3853C16.7682 18.2856 16.8976 17.7466 17.1562 16.6684L18.5908 10.6876C18.9892 9.02709 19.1883 8.19682 18.7456 7.7873C18.3029 7.37778 17.5355 7.68245 16.0007 8.29179L8.88033 11.1188C7.65283 11.6061 7.03908 11.8498 7.00011 12.2686C6.99612 12.3114 6.99606 12.3546 6.99992 12.3974C7.0376 12.8163 7.6506 13.0621 8.8766 13.5535C9.4321 13.7761 9.70985 13.8875 9.90899 14.1007C9.93138 14.1247 9.95291 14.1495 9.97354 14.1751C10.157 14.4031 10.2353 14.7024 10.3919 15.3007L10.685 16.4207C10.8374 17.003 10.9136 17.2942 11.1131 17.3339C11.3127 17.3736 11.4864 17.1321 11.8339 16.6492L12.9883 15.0451ZM12.9883 15.0451L12.7976 14.8464C12.5806 14.6202 12.4721 14.5071 12.4721 14.3666C12.4721 14.2261 12.5806 14.113 12.7976 13.8868L14.9414 11.6526" stroke="currentColor" stroke-width="0.899998" stroke-linecap="round" stroke-linejoin="round"/>
</g>
</svg>
