<svg width="14" height="12" viewBox="0 0 14 12" fill="none" xmlns="http://www.w3.org/2000/svg">
<path d="M6.98831 8.04508L8.93315 10.2563C9.65369 11.0754 10.014 11.4851 10.3911 11.3853C10.7682 11.2856 10.8976 10.7466 11.1562 9.66838L12.5908 3.68764C12.9892 2.02709 13.1883 1.19682 12.7456 0.787297C12.3029 0.377779 11.5355 0.682447 10.0007 1.29179L2.88033 4.11879C1.65283 4.60614 1.03908 4.84984 1.00011 5.26858C0.996123 5.31142 0.996057 5.35456 0.999915 5.3974C1.0376 5.81632 1.6506 6.06208 2.8766 6.55348C3.4321 6.77614 3.70985 6.8875 3.90899 7.10074C3.93138 7.12468 3.95291 7.14952 3.97354 7.17514C4.15702 7.40314 4.23533 7.70236 4.39192 8.30074L4.68499 9.4207C4.83737 10.003 4.91357 10.2942 5.11312 10.3339C5.31267 10.3736 5.48642 10.1321 5.83391 9.64924L6.98831 8.04508ZM6.98831 8.04508L6.79763 7.84636C6.58061 7.62016 6.47213 7.50712 6.47213 7.3666C6.47213 7.22608 6.58061 7.11298 6.79763 6.88678L8.94143 4.65255" stroke="currentColor" stroke-width="0.899998" stroke-linecap="round" stroke-linejoin="round"/>
</svg>
