<svg width="14" height="14" viewBox="0 0 14 14" fill="none" xmlns="http://www.w3.org/2000/svg">
<path d="M0.998825 6.99976C0.998825 4.17133 0.998825 2.75712 1.8775 1.87843C2.75619 0.999756 4.1704 0.999756 6.99882 0.999756C9.82722 0.999756 11.2415 0.999756 12.1202 1.87843C12.9988 2.75712 12.9988 4.17133 12.9988 6.99976C12.9988 9.82816 12.9988 11.2424 12.1202 12.1211C11.2415 12.9998 9.82722 12.9998 6.99882 12.9998C4.1704 12.9998 2.75619 12.9998 1.8775 12.1211C0.998825 11.2424 0.998825 9.82816 0.998825 6.99976Z" stroke="currentColor" stroke-linejoin="round"/>
<path d="M6.0726 6.37308C5.55468 6.29988 4.37413 6.42101 3.79526 7.49142C3.21638 8.56175 3.7998 9.67579 4.16387 10.099C4.52339 10.495 5.66609 11.2448 6.87818 10.5127C7.17862 10.3312 7.5529 10.1959 7.97751 8.778L7.92812 3.19873C7.8462 3.81309 8.52483 5.25408 10.4571 5.42457" stroke="currentColor" stroke-linecap="round" stroke-linejoin="round"/>
</svg>
