<svg width="23" height="23" viewBox="0 0 23 23" fill="none" xmlns="http://www.w3.org/2000/svg">
<path d="M16.1775 17.52L17.3513 16.3462C17.4596 16.2387 17.5137 16.1133 17.5137 15.97C17.5137 15.8267 17.4596 15.7004 17.3513 15.5912L12.5962 10.8288C12.7279 10.5838 12.8267 10.3188 12.8925 10.0338C12.9583 9.74875 12.9908 9.43625 12.99 9.09625C12.99 7.99458 12.5967 7.0525 11.81 6.27C11.0225 5.4875 10.0746 5.09625 8.96625 5.09625C8.66042 5.09625 8.37125 5.13042 8.09875 5.19875C7.82625 5.26708 7.56167 5.36208 7.305 5.48375L9.90625 8.10875L7.96375 10.0513L5.315 7.42625C5.19667 7.67875 5.1025 7.94625 5.0325 8.22875C4.9625 8.51042 4.9275 8.80458 4.9275 9.11125C4.9275 10.2196 5.32125 11.1671 6.10875 11.9537C6.89625 12.7404 7.84417 13.1342 8.9525 13.135C9.26917 13.135 9.56792 13.0979 9.84875 13.0237C10.1296 12.9496 10.4083 12.855 10.685 12.74L15.4475 17.495C15.5558 17.6042 15.6775 17.6625 15.8125 17.67C15.9475 17.6775 16.0692 17.6275 16.1775 17.52ZM11.2538 22.5C9.69875 22.5 8.23625 22.205 6.86625 21.615C5.49708 21.0242 4.30583 20.2225 3.2925 19.21C2.27917 18.1975 1.47708 17.0075 0.88625 15.64C0.295417 14.2725 0 12.8104 0 11.2538C0 9.69708 0.295417 8.23458 0.88625 6.86625C1.47625 5.49708 2.27667 4.30583 3.2875 3.2925C4.29833 2.27917 5.48875 1.47708 6.85875 0.88625C8.22875 0.295417 9.69125 0 11.2462 0C12.8012 0 14.2638 0.295417 15.6337 0.88625C17.0029 1.47625 18.1942 2.27708 19.2075 3.28875C20.2208 4.30042 21.0229 5.49083 21.6138 6.86C22.2046 8.22917 22.5 9.69125 22.5 11.2462C22.5 12.8012 22.205 14.2638 21.615 15.6337C21.025 17.0037 20.2233 18.195 19.21 19.2075C18.1967 20.22 17.0067 21.0221 15.64 21.6138C14.2733 22.2054 12.8113 22.5008 11.2538 22.5ZM11.25 21.25C14.0417 21.25 16.4062 20.2812 18.3437 18.3437C20.2812 16.4062 21.25 14.0417 21.25 11.25C21.25 8.45833 20.2812 6.09375 18.3437 4.15625C16.4062 2.21875 14.0417 1.25 11.25 1.25C8.45833 1.25 6.09375 2.21875 4.15625 4.15625C2.21875 6.09375 1.25 8.45833 1.25 11.25C1.25 14.0417 2.21875 16.4062 4.15625 18.3437C6.09375 20.2812 8.45833 21.25 11.25 21.25Z" fill="currentColor"/>
</svg>
