<svg width="12" height="10" viewBox="0 0 12 10" fill="none" xmlns="http://www.w3.org/2000/svg">
<path d="M7.6752 4.065L5.4744 2.7978C5.34518 2.72341 5.19868 2.6843 5.04957 2.68441C4.90047 2.68452 4.75402 2.72384 4.62492 2.79842C4.49581 2.87301 4.38859 2.98023 4.31401 3.10934C4.23942 3.23845 4.20011 3.3849 4.2 3.534V6.0672C4.1982 6.3708 4.3602 6.6516 4.6236 6.8016C4.75274 6.87704 4.89958 6.9169 5.04914 6.91711C5.1987 6.91732 5.34565 6.87788 5.475 6.8028L7.6752 5.5356C7.80445 5.4613 7.91182 5.35422 7.98648 5.22518C8.06115 5.09614 8.10046 4.94969 8.10046 4.8006C8.10046 4.65151 8.06115 4.50506 7.98648 4.37602C7.91182 4.24698 7.80445 4.1393 7.6752 4.065ZM7.3752 5.0148L5.1756 6.2826C5.13748 6.30496 5.09409 6.31675 5.0499 6.31675C5.00571 6.31675 4.96232 6.30496 4.9242 6.2826C4.88597 6.26096 4.85426 6.22943 4.83241 6.19132C4.81056 6.15321 4.79936 6.10993 4.8 6.066V3.534C4.79958 3.49028 4.81088 3.44724 4.83272 3.40936C4.85456 3.37148 4.88615 3.34014 4.9242 3.3186C4.96199 3.2956 5.00537 3.28344 5.0496 3.28344C5.09383 3.28344 5.13722 3.2956 5.175 3.3186L7.3752 4.5864C7.41315 4.60783 7.44472 4.63895 7.46668 4.67659C7.48865 4.71423 7.50023 4.75702 7.50023 4.8006C7.50023 4.84418 7.48865 4.88697 7.46668 4.92461C7.44472 4.96225 7.41315 4.99337 7.3752 5.0148ZM10.2 0H1.8C1.32276 0.000476529 0.865196 0.190272 0.527734 0.527734C0.190272 0.865196 0.000476529 1.32276 0 1.8V7.8C0.000476529 8.27724 0.190272 8.7348 0.527734 9.07227C0.865196 9.40973 1.32276 9.59952 1.8 9.6H10.2C10.6772 9.59952 11.1348 9.40973 11.4723 9.07227C11.8097 8.7348 11.9995 8.27724 12 7.8V1.8C11.9995 1.32276 11.8097 0.865196 11.4723 0.527734C11.1348 0.190272 10.6772 0.000476529 10.2 0ZM11.4 7.8C11.3995 8.11811 11.2729 8.42306 11.048 8.648C10.8231 8.87294 10.5181 8.99952 10.2 9H1.8C1.48189 8.99952 1.17694 8.87294 0.951998 8.648C0.727057 8.42306 0.600476 8.11811 0.6 7.8V1.8C0.600476 1.48189 0.727057 1.17694 0.951998 0.951998C1.17694 0.727057 1.48189 0.600476 1.8 0.6H10.2C10.5181 0.600476 10.8231 0.727057 11.048 0.951998C11.2729 1.17694 11.3995 1.48189 11.4 1.8V7.8Z" fill="currentColor" fill-opacity="0.8"/>
</svg>
